<svg id="visual" viewBox="0 0 1500 700" width="1500" height="700" xmlns="http://www.w3.org/2000/svg" xmlns:xlink="http://www.w3.org/1999/xlink" version="1.1"><rect x="0" y="0" width="1500" height="700" fill="#000000"></rect><path d="M0 457L35.7 458.7C71.3 460.3 142.7 463.7 214.2 466C285.7 468.3 357.3 469.7 428.8 460C500.3 450.3 571.7 429.7 643 430.3C714.3 431 785.7 453 857 465.7C928.3 478.3 999.7 481.7 1071.2 486.2C1142.7 490.7 1214.3 496.3 1285.8 501.3C1357.3 506.3 1428.7 510.7 1464.3 512.8L1500 515L1500 701L1464.3 701C1428.7 701 1357.3 701 1285.8 701C1214.3 701 1142.7 701 1071.2 701C999.7 701 928.3 701 857 701C785.7 701 714.3 701 643 701C571.7 701 500.3 701 428.8 701C357.3 701 285.7 701 214.2 701C142.7 701 71.3 701 35.7 701L0 701Z" fill="#000000"></path><path d="M0 554L35.7 551.3C71.3 548.7 142.7 543.3 214.2 529C285.7 514.7 357.3 491.3 428.8 481.8C500.3 472.3 571.7 476.7 643 482C714.3 487.3 785.7 493.7 857 492.3C928.3 491 999.7 482 1071.2 479.5C1142.7 477 1214.3 481 1285.8 490C1357.3 499 1428.7 513 1464.3 520L1500 527L1500 701L1464.3 701C1428.7 701 1357.3 701 1285.8 701C1214.3 701 1142.7 701 1071.2 701C999.7 701 928.3 701 857 701C785.7 701 714.3 701 643 701C571.7 701 500.3 701 428.8 701C357.3 701 285.7 701 214.2 701C142.7 701 71.3 701 35.7 701L0 701Z" fill="#700000"></path><path d="M0 560L35.7 564.2C71.3 568.3 142.7 576.7 214.2 579C285.7 581.3 357.3 577.7 428.8 577.2C500.3 576.7 571.7 579.3 643 570.3C714.3 561.3 785.7 540.7 857 537.3C928.3 534 999.7 548 1071.2 547.2C1142.7 546.3 1214.3 530.7 1285.8 529.3C1357.3 528 1428.7 541 1464.3 547.5L1500 554L1500 701L1464.3 701C1428.7 701 1357.3 701 1285.8 701C1214.3 701 1142.7 701 1071.2 701C999.7 701 928.3 701 857 701C785.7 701 714.3 701 643 701C571.7 701 500.3 701 428.8 701C357.3 701 285.7 701 214.2 701C142.7 701 71.3 701 35.7 701L0 701Z" fill="#a20000"></path><path d="M0 568L35.7 578.7C71.3 589.3 142.7 610.7 214.2 616.7C285.7 622.7 357.3 613.3 428.8 602.5C500.3 591.7 571.7 579.3 643 573.2C714.3 567 785.7 567 857 576C928.3 585 999.7 603 1071.2 612C1142.7 621 1214.3 621 1285.8 617C1357.3 613 1428.7 605 1464.3 601L1500 597L1500 701L1464.3 701C1428.7 701 1357.3 701 1285.8 701C1214.3 701 1142.7 701 1071.2 701C999.7 701 928.3 701 857 701C785.7 701 714.3 701 643 701C571.7 701 500.3 701 428.8 701C357.3 701 285.7 701 214.2 701C142.7 701 71.3 701 35.7 701L0 701Z" fill="#cd0f04"></path><path d="M0 655L35.7 653.2C71.3 651.3 142.7 647.7 214.2 643.7C285.7 639.7 357.3 635.3 428.8 638.3C500.3 641.3 571.7 651.7 643 651.8C714.3 652 785.7 642 857 637.7C928.3 633.3 999.7 634.7 1071.2 634.5C1142.7 634.3 1214.3 632.7 1285.8 632.5C1357.3 632.3 1428.7 633.7 1464.3 634.3L1500 635L1500 701L1464.3 701C1428.7 701 1357.3 701 1285.8 701C1214.3 701 1142.7 701 1071.2 701C999.7 701 928.3 701 857 701C785.7 701 714.3 701 643 701C571.7 701 500.3 701 428.8 701C357.3 701 285.7 701 214.2 701C142.7 701 71.3 701 35.7 701L0 701Z" fill="#fa1e08"></path></svg>