<svg id="visual" viewBox="0 0 900 600" width="900" height="600" xmlns="http://www.w3.org/2000/svg" xmlns:xlink="http://www.w3.org/1999/xlink" version="1.1"><rect x="0" y="0" width="900" height="600" fill="#000000"></rect><path d="M0 240L21.5 227.3C43 214.7 86 189.3 128.8 183.5C171.7 177.7 214.3 191.3 257.2 200.2C300 209 343 213 385.8 204.2C428.7 195.3 471.3 173.7 514.2 172.2C557 170.7 600 189.3 642.8 201.5C685.7 213.7 728.3 219.3 771.2 211C814 202.7 857 180.3 878.5 169.2L900 158L900 0L878.5 0C857 0 814 0 771.2 0C728.3 0 685.7 0 642.8 0C600 0 557 0 514.2 0C471.3 0 428.7 0 385.8 0C343 0 300 0 257.2 0C214.3 0 171.7 0 128.8 0C86 0 43 0 21.5 0L0 0Z" fill="#851109"></path><path d="M0 135L21.5 137.2C43 139.3 86 143.7 128.8 148C171.7 152.3 214.3 156.7 257.2 152.8C300 149 343 137 385.8 143.3C428.7 149.7 471.3 174.3 514.2 176.3C557 178.3 600 157.7 642.8 152.5C685.7 147.3 728.3 157.7 771.2 166.3C814 175 857 182 878.5 185.5L900 189L900 0L878.5 0C857 0 814 0 771.2 0C728.3 0 685.7 0 642.8 0C600 0 557 0 514.2 0C471.3 0 428.7 0 385.8 0C343 0 300 0 257.2 0C214.3 0 171.7 0 128.8 0C86 0 43 0 21.5 0L0 0Z" fill="#a3150a"></path><path d="M0 91L21.5 92.3C43 93.7 86 96.3 128.8 96.3C171.7 96.3 214.3 93.7 257.2 98.5C300 103.3 343 115.7 385.8 126.8C428.7 138 471.3 148 514.2 148.3C557 148.7 600 139.3 642.8 132.7C685.7 126 728.3 122 771.2 115.2C814 108.3 857 98.7 878.5 93.8L900 89L900 0L878.5 0C857 0 814 0 771.2 0C728.3 0 685.7 0 642.8 0C600 0 557 0 514.2 0C471.3 0 428.7 0 385.8 0C343 0 300 0 257.2 0C214.3 0 171.7 0 128.8 0C86 0 43 0 21.5 0L0 0Z" fill="#c11a09"></path><path d="M0 69L21.5 73.2C43 77.3 86 85.7 128.8 88.2C171.7 90.7 214.3 87.3 257.2 88.3C300 89.3 343 94.7 385.8 93C428.7 91.3 471.3 82.7 514.2 80C557 77.3 600 80.7 642.8 85.8C685.7 91 728.3 98 771.2 102.3C814 106.7 857 108.3 878.5 109.2L900 110L900 0L878.5 0C857 0 814 0 771.2 0C728.3 0 685.7 0 642.8 0C600 0 557 0 514.2 0C471.3 0 428.7 0 385.8 0C343 0 300 0 257.2 0C214.3 0 171.7 0 128.8 0C86 0 43 0 21.5 0L0 0Z" fill="#e02006"></path><path d="M0 68L21.5 62.2C43 56.3 86 44.7 128.8 44.2C171.7 43.7 214.3 54.3 257.2 53.2C300 52 343 39 385.8 40.2C428.7 41.3 471.3 56.7 514.2 61.5C557 66.3 600 60.7 642.8 55.5C685.7 50.3 728.3 45.7 771.2 43.3C814 41 857 41 878.5 41L900 41L900 0L878.5 0C857 0 814 0 771.2 0C728.3 0 685.7 0 642.8 0C600 0 557 0 514.2 0C471.3 0 428.7 0 385.8 0C343 0 300 0 257.2 0C214.3 0 171.7 0 128.8 0C86 0 43 0 21.5 0L0 0Z" fill="#ff2700"></path></svg>